<svg width="322" height="355" viewBox="0 0 322 355" fill="none" xmlns="http://www.w3.org/2000/svg">
<path opacity="0.19" d="M116.86 192.56C169.94 192.56 212.97 149.53 212.97 96.45C212.97 43.3699 169.94 0.339966 116.86 0.339966C63.7799 0.339966 20.75 43.3699 20.75 96.45C20.75 149.53 63.7799 192.56 116.86 192.56Z" fill="#008DB8"/>
<path d="M253.05 293.29C255.33 293.29 257.18 291.44 257.18 289.16V285.42C267.25 283.81 273.39 276.6 274.38 269.48C275.51 261.38 270.29 254.41 261.08 251.73C255.03 249.97 248.32 247.83 244.41 245.3C242.26 243.91 242.39 241.61 242.54 240.69C242.92 238.4 244.79 235.58 248.87 234.57C250.34 234.2 251.72 234.02 253.01 233.95C253.02 233.95 253.03 233.95 253.04 233.95C253.18 233.95 253.32 233.94 253.46 233.93C259.47 233.77 263.18 236.37 263.42 236.54C265.24 237.9 267.81 237.54 269.18 235.73C270.56 233.91 270.21 231.32 268.39 229.94C268.14 229.75 263.97 226.66 257.16 225.85V222.82C257.16 220.54 255.31 218.69 253.03 218.69C250.75 218.69 248.9 220.54 248.9 222.82V226.12C248.24 226.24 247.56 226.38 246.87 226.55C240.3 228.18 235.4 233.2 234.38 239.33C233.51 244.53 235.64 249.47 239.92 252.24C243.79 254.74 249.25 256.89 258.76 259.66C264.04 261.2 266.74 264.36 266.19 268.33C265.56 272.85 260.83 277.44 253.02 277.48C246.53 277.52 243.96 277.28 238.45 274.3C236.44 273.22 233.93 273.97 232.85 275.98C231.77 277.99 232.52 280.49 234.53 281.58C240.19 284.63 243.88 285.49 248.91 285.69V289.15C248.92 291.44 250.77 293.29 253.05 293.29Z" fill="#008DB8"/>
<path d="M78.6602 275.98V70C78.6602 52.94 92.4902 39.11 109.56 39.11H284.64" stroke="#008DB8" stroke-width="12" stroke-miterlimit="10"/>
<path d="M202.25 348.08H68.3699C34.2399 348.08 6.56982 320.41 6.56982 286.28C6.56982 280.59 11.1799 275.98 16.8699 275.98H78.6599H150.76V295.72C150.76 324.08 173.32 347.77 201.68 348.07C225.63 348.33 245.86 332.24 251.91 310.27" stroke="#008DB8" stroke-width="12" stroke-miterlimit="10"/>
<path d="M253.75 123.32C253.54 112.68 253.54 101.68 253.75 90.6001" stroke="#008DB8" stroke-width="12" stroke-miterlimit="10"/>
<path d="M253.75 201.34C253.54 193.67 253.54 186.67 253.75 178.73" stroke="#008DB8" stroke-width="12" stroke-miterlimit="10"/>
<path d="M284.64 39.11C267.58 39.11 253.75 52.94 253.75 70V90.6H304.8C310.73 90.6 315.54 85.79 315.54 79.86V70C315.54 52.94 301.71 39.11 284.64 39.11Z" stroke="#008DB8" stroke-width="12" stroke-miterlimit="10"/>
<path d="M307.03 255.8C307.03 285.89 282.64 310.28 252.55 310.28C252.34 310.28 252.12 310.28 251.91 310.27C222.11 309.93 198.07 285.68 198.07 255.8C198.07 225.71 222.46 201.32 252.55 201.32C252.95 201.32 253.35 201.33 253.75 201.34C283.29 201.98 307.03 226.11 307.03 255.8Z" stroke="#008DB8" stroke-width="12" stroke-miterlimit="10"/>
<path d="M193.34 96.45H122.77C119.51 96.45 116.86 93.8 116.86 90.54C116.86 87.28 119.51 84.63 122.77 84.63H193.34C196.6 84.63 199.25 87.28 199.25 90.54C199.25 93.81 196.6 96.45 193.34 96.45Z" fill="#008DB8"/>
<path d="M172.74 137.7H122.77C119.51 137.7 116.86 135.05 116.86 131.79C116.86 128.53 119.51 125.88 122.77 125.88H172.74C176 125.88 178.65 128.53 178.65 131.79C178.65 135.06 176.01 137.7 172.74 137.7Z" fill="#008DB8"/>
<path d="M172.74 220.1H122.77C119.51 220.1 116.86 217.45 116.86 214.19C116.86 210.93 119.51 208.28 122.77 208.28H172.74C176 208.28 178.65 210.93 178.65 214.19C178.65 217.45 176.01 220.1 172.74 220.1Z" fill="#008DB8"/>
<path d="M193.34 178.9H122.77C119.51 178.9 116.86 176.25 116.86 172.99C116.86 169.73 119.51 167.08 122.77 167.08H193.34C196.6 167.08 199.25 169.73 199.25 172.99C199.25 176.25 196.6 178.9 193.34 178.9Z" fill="#008DB8"/>
<path d="M253.77 167.35C257.07 167.35 259.74 170.02 259.74 173.32V181.63C259.74 184.93 257.07 187.6 253.77 187.6C250.47 187.6 247.8 184.93 247.8 181.63V173.32C247.8 170.03 250.47 167.35 253.77 167.35Z" fill="#008DB8"/>
<path d="M253.75 118.39C257.06 118.39 259.74 121.07 259.74 124.38V132.66C259.74 135.97 257.06 138.65 253.75 138.65C250.44 138.65 247.76 135.97 247.76 132.66V124.38C247.76 121.07 250.44 118.39 253.75 118.39Z" fill="#008DB8"/>
</svg>
