<svg width="374" height="369" viewBox="0 0 374 369" fill="none" xmlns="http://www.w3.org/2000/svg">
<path opacity="0.19" d="M96.4299 226.86C149.51 226.86 192.54 183.83 192.54 130.75C192.54 77.6699 149.51 34.64 96.4299 34.64C43.3498 34.64 0.319824 77.6699 0.319824 130.75C0.319824 183.83 43.3498 226.86 96.4299 226.86Z" fill="#008DB8"/>
<path d="M258.93 151.17C261.21 151.17 263.06 149.32 263.06 147.04V143.3C273.13 141.69 279.27 134.48 280.26 127.36C281.39 119.26 276.17 112.29 266.96 109.61C260.91 107.85 254.2 105.71 250.29 103.18C248.14 101.79 248.27 99.4899 248.42 98.5699C248.8 96.2799 250.67 93.46 254.75 92.45C256.22 92.08 257.6 91.9 258.89 91.83C258.9 91.83 258.91 91.83 258.92 91.83C259.06 91.83 259.2 91.8201 259.34 91.8101C265.35 91.6501 269.06 94.25 269.3 94.42C271.12 95.78 273.69 95.42 275.06 93.61C276.44 91.79 276.09 89.1999 274.27 87.8199C274.02 87.6299 269.85 84.54 263.04 83.73V80.7C263.04 78.42 261.19 76.5699 258.91 76.5699C256.63 76.5699 254.78 78.42 254.78 80.7V84C254.12 84.12 253.44 84.2601 252.75 84.4301C246.18 86.0601 241.28 91.08 240.26 97.21C239.39 102.41 241.52 107.35 245.8 110.12C249.67 112.62 255.13 114.77 264.64 117.54C269.92 119.08 272.62 122.24 272.07 126.21C271.44 130.73 266.71 135.32 258.9 135.36C252.41 135.4 249.84 135.16 244.33 132.18C242.32 131.1 239.82 131.85 238.73 133.86C237.65 135.87 238.4 138.37 240.41 139.46C246.07 142.51 249.76 143.37 254.79 143.57V147.03C254.8 149.32 256.65 151.17 258.93 151.17Z" fill="#008DB8"/>
<path d="M117.12 181.27C119.4 181.27 121.25 179.42 121.25 177.14V173.4C131.32 171.79 137.459 164.58 138.449 157.46C139.579 149.36 134.36 142.39 125.15 139.71C119.1 137.95 112.39 135.81 108.48 133.28C106.33 131.89 106.46 129.59 106.61 128.67C106.99 126.38 108.859 123.56 112.939 122.55C114.409 122.18 115.79 122 117.08 121.93C117.09 121.93 117.1 121.93 117.11 121.93C117.25 121.93 117.39 121.92 117.53 121.91C123.54 121.75 127.25 124.35 127.49 124.52C129.31 125.88 131.88 125.52 133.25 123.71C134.63 121.89 134.28 119.3 132.46 117.92C132.21 117.73 128.04 114.64 121.23 113.83V110.8C121.23 108.52 119.38 106.67 117.1 106.67C114.82 106.67 112.97 108.52 112.97 110.8V114.1C112.31 114.22 111.629 114.36 110.939 114.53C104.369 116.16 99.4695 121.18 98.4495 127.31C97.5795 132.51 99.7095 137.45 103.99 140.22C107.86 142.72 113.319 144.87 122.83 147.64C128.11 149.18 130.81 152.34 130.26 156.31C129.63 160.83 124.9 165.42 117.09 165.46C110.6 165.5 108.03 165.26 102.52 162.28C100.51 161.2 97.9996 161.95 96.9196 163.96C95.8396 165.97 96.5895 168.47 98.5995 169.56C104.26 172.61 107.95 173.47 112.98 173.67V177.13C112.99 179.42 114.84 181.27 117.12 181.27Z" fill="#008DB8"/>
<path d="M204.53 60.1899V170.01C204.53 176.02 209.4 180.9 215.42 180.9H302.53C308.54 180.9 313.42 176.03 313.42 170.01V60.1899C313.42 57.2999 312.27 54.53 310.23 52.49L267.61 9.87C265.57 7.83 262.8 6.68005 259.91 6.68005H258.04C255.15 6.68005 252.38 7.83 250.34 9.87L207.72 52.49C205.68 54.53 204.53 57.2999 204.53 60.1899Z" stroke="#008DB8" stroke-width="12" stroke-miterlimit="10"/>
<path d="M258.97 49.85C265.15 49.85 270.16 44.8401 270.16 38.66C270.16 32.48 265.15 27.47 258.97 27.47C252.79 27.47 247.78 32.48 247.78 38.66C247.78 44.8401 252.79 49.85 258.97 49.85Z" fill="#008DB8"/>
<path d="M63.5298 171.85V200.01C63.5298 206.02 68.3998 210.9 74.4198 210.9H161.53C167.54 210.9 172.42 206.03 172.42 200.01V90.1899C172.42 87.2999 171.27 84.53 169.23 82.49L126.61 39.87C124.57 37.83 121.8 36.6801 118.91 36.6801H117.04C114.15 36.6801 111.38 37.83 109.34 39.87L66.7197 82.49C64.6797 84.53 63.5298 87.2999 63.5298 90.1899V125.07" stroke="#008DB8" stroke-width="12" stroke-miterlimit="10"/>
<path d="M117.97 79.85C124.15 79.85 129.16 74.8401 129.16 68.66C129.16 62.48 124.15 57.47 117.97 57.47C111.79 57.47 106.78 62.48 106.78 68.66C106.78 74.8401 111.79 79.85 117.97 79.85Z" fill="#008DB8"/>
<path d="M263.03 331.74H276.17C285.17 331.74 292.47 324.44 292.47 315.44V293.26C292.47 287.19 287.55 282.27 281.48 282.27H215.53C209.46 282.27 204.54 287.19 204.54 293.26V315.44C204.54 324.44 211.84 331.74 220.84 331.74H233.38" stroke="#008DB8" stroke-width="9" stroke-miterlimit="10"/>
<path d="M286.97 210.82H248.5C230.29 210.82 215.52 225.58 215.52 243.8V282.27H248.5V254.79C248.5 248.72 253.42 243.8 259.49 243.8H286.97C296.08 243.8 303.46 236.42 303.46 227.31C303.46 218.21 296.08 210.82 286.97 210.82Z" stroke="#008DB8" stroke-width="9" stroke-miterlimit="10"/>
<path d="M366.2 203.05C361.91 198.76 354.95 198.76 350.65 203.05L309.9 243.8H259.49C253.42 243.8 248.5 248.72 248.5 254.79V282.27H281.48V276.77C281.48 270.7 286.4 265.78 292.47 265.78H312.18C316.58 265.78 320.73 264.07 323.84 260.95L366.2 218.59C370.49 214.3 370.49 207.35 366.2 203.05Z" stroke="#008DB8" stroke-width="9" stroke-miterlimit="10"/>
<path d="M84.4795 325.27V347.47C84.4795 356.46 91.7695 363.75 100.76 363.75H156.15C165.14 363.75 172.43 356.46 172.43 347.47V325.27C172.43 319.2 167.509 314.28 161.439 314.28H95.4895C89.3995 314.28 84.4795 319.2 84.4795 325.27Z" stroke="#008DB8" stroke-width="9" stroke-miterlimit="10"/>
<path d="M73.4795 259.31C73.4795 268.42 80.8595 275.8 89.9695 275.8H117.449C123.519 275.8 128.439 280.72 128.439 286.79V314.27H161.42V275.8C161.42 257.59 146.659 242.82 128.439 242.82H89.9695C80.8695 242.82 73.4795 250.21 73.4795 259.31Z" stroke="#008DB8" stroke-width="9" stroke-miterlimit="10"/>
<path d="M10.7497 235.05C6.45973 239.34 6.45973 246.3 10.7497 250.6L53.1097 292.96C56.2197 296.07 60.3597 297.79 64.7697 297.79H84.4797C90.5497 297.79 95.4697 302.71 95.4697 308.78V314.28H128.45V286.8C128.45 280.73 123.53 275.81 117.46 275.81H67.0498L26.2998 235.06C21.9998 230.76 15.0397 230.76 10.7497 235.05Z" stroke="#008DB8" stroke-width="9" stroke-miterlimit="10"/>
<path d="M257.16 331.89V331.6C257.16 329.19 259.11 327.24 261.52 327.24H273.07C275.48 327.24 277.43 329.19 277.43 331.6V331.89C277.43 334.3 275.48 336.25 273.07 336.25H261.52C259.11 336.24 257.16 334.29 257.16 331.89Z" fill="#008DB8"/>
<path d="M218.189 331.75V331.73C218.189 329.25 220.2 327.24 222.68 327.24H233.959C236.439 327.24 238.449 329.25 238.449 331.73V331.75C238.449 334.23 236.439 336.24 233.959 336.24H222.68C220.2 336.24 218.189 334.23 218.189 331.75Z" fill="#008DB8"/>
<path d="M63.5399 160.24C66.8399 160.24 69.5099 162.91 69.5099 166.21V174.52C69.5099 177.82 66.8399 180.49 63.5399 180.49C60.2399 180.49 57.5699 177.82 57.5699 174.52V166.21C57.5599 162.92 60.2399 160.24 63.5399 160.24Z" fill="#008DB8"/>
<path d="M63.5198 119.28C66.8298 119.28 69.5098 121.96 69.5098 125.27V133.55C69.5098 136.86 66.8298 139.54 63.5198 139.54C60.2098 139.54 57.5298 136.86 57.5298 133.55V125.27C57.5298 121.96 60.2098 119.28 63.5198 119.28Z" fill="#008DB8"/>
</svg>
