<svg width="352" height="335" viewBox="0 0 352 335" fill="none" xmlns="http://www.w3.org/2000/svg">
<path opacity="0.19" d="M254.97 334.42C308.05 334.42 351.08 291.39 351.08 238.31C351.08 185.23 308.05 142.2 254.97 142.2C201.89 142.2 158.86 185.23 158.86 238.31C158.86 291.39 201.89 334.42 254.97 334.42Z" fill="#008DB8"/>
<path d="M28.6999 84.5999C27.2099 83.1099 24.7999 83.1099 23.3199 84.5999C17.7999 90.1199 15.0899 97.7999 15.8799 105.69C16.0799 107.65 17.7299 109.12 19.6599 109.12C19.7899 109.12 19.9099 109.11 20.0399 109.1C22.1299 108.89 23.6599 107.02 23.4499 104.93C22.8899 99.33 24.7999 93.8799 28.6999 89.9799C30.1899 88.4999 30.1899 86.0899 28.6999 84.5999Z" fill="#008DB8"/>
<path d="M43.7798 61.15C19.7798 61.15 0.259766 80.67 0.259766 104.67C0.259766 128.67 19.7798 148.19 43.7798 148.19C67.7798 148.19 87.2997 128.67 87.2997 104.67C87.2997 80.68 67.7798 61.15 43.7798 61.15ZM43.7798 140.59C23.9798 140.59 7.86975 124.48 7.86975 104.68C7.86975 84.8801 23.9798 68.77 43.7798 68.77C63.5798 68.77 79.6898 84.8801 79.6898 104.68C79.6898 124.48 63.5798 140.59 43.7798 140.59Z" fill="#008DB8"/>
<path d="M102.17 157.69L74.5097 130.03C73.0197 128.54 70.6097 128.54 69.1297 130.03C67.6397 131.52 67.6397 133.93 69.1297 135.41L96.7897 163.07C97.5297 163.81 98.5097 164.19 99.4797 164.19C100.45 164.19 101.43 163.82 102.17 163.07C103.66 161.59 103.66 159.18 102.17 157.69Z" fill="#008DB8"/>
<path d="M103.73 95.9101H103.71C103.71 99.8601 103.69 103.8 103.72 107.75C103.74 110.52 105.79 112.57 108.57 112.62C110.73 112.65 112.89 112.71 115.04 112.59C116.36 112.52 117.04 113.06 117.57 114.17C120.99 121.35 126.69 125.79 134.25 127.99C134.66 128.11 135.13 128.62 135.25 129.04C135.55 130.09 135.71 131.19 135.87 132.28C136.9 139.48 139.36 146.18 143.05 152.45C146.48 158.29 150.79 163.35 156.12 167.52C161.09 171.41 166.53 174.44 172.52 176.53C177.8 178.36 183.21 179.42 188.77 179.74C194.22 180.06 199.54 179.21 204.83 177.87C211.07 176.28 216.83 173.67 222.15 170.11C230.29 164.67 236.55 157.53 240.73 148.68C242.27 145.43 243.5 142.01 244.52 138.56C245.43 135.5 245.82 132.3 246.53 129.17C246.63 128.72 247.16 128.22 247.61 128.03C249.16 127.36 250.85 126.99 252.34 126.21C257.64 123.46 261.9 119.62 264.34 114.04C264.78 113.04 265.41 112.61 266.55 112.64C269.44 112.71 272.34 112.51 275.22 112.67C278.29 112.84 280.61 110.35 280.56 107.35C280.49 103.04 280.54 98.7201 280.55 94.4101C280.56 91.5701 280.34 88.6901 280.71 85.8901C281.19 82.2501 278.51 78.94 275.02 79.1C272.32 79.23 269.61 79.1701 266.9 79.1701C265.1 79.1701 264.58 79.5 264.47 77.21C264.43 76.48 264.27 75.7601 264.11 75.0401C263.1 70.3501 262.37 65.58 260.98 61.01C259.25 55.31 256.58 49.95 253.33 44.94C243.93 30.47 231.14 20.2501 214.77 14.6401C213.88 14.3401 213.64 13.8901 213.65 13.0601C213.66 10.9001 213.67 8.74 213.61 6.59C213.54 4.06 212.18 2.23009 209.69 1.80009C205.9 1.16009 202.08 0.650088 198.24 0.300088C190.19 -0.429912 182.21 0.200014 174.31 1.85001C172.28 2.27001 170.94 3.63002 170.77 5.73002C170.58 8.00002 170.62 10.31 170.61 12.6C170.61 13.69 170.17 14.3001 169.1 14.5601C168.12 14.8001 167.16 15.11 166.22 15.47C159.35 18.13 152.95 21.62 147.14 26.19C138.49 33.01 131.62 41.2801 126.64 51.1401C122.43 59.5001 119.77 68.28 119.06 77.62C118.97 78.88 118.38 79.15 117.3 79.13C114.5 79.1 111.7 79.14 108.91 79.1C106.3 79.06 103.56 81.45 103.68 84.34C103.85 88.2 103.73 92.0501 103.73 95.9101ZM213.65 26.45C213.66 25.83 213.74 25.22 213.79 24.58C227.29 27.41 248.24 47.6 250.49 59.94C249.91 59.99 249.34 60.08 248.77 60.08C243.59 60.09 238.4 60.1701 233.21 60.0501C230.7 59.9901 228.07 62.0201 227.98 64.8101C227.9 67.4901 230.23 69.72 233.17 69.73C239.41 69.76 245.65 69.79 251.89 69.72C253.22 69.7 253.85 70.1801 254.02 71.4301C254.31 73.4201 254.58 75.4201 254.91 77.4101C255.14 78.7301 254.61 79.0501 253.35 79.0501C242.25 79.0001 231.15 79.01 220.04 79C218.39 79 216.73 78.9501 215.09 79.0401C213.91 79.1101 213.61 78.6301 213.62 77.5301C213.66 69.6901 213.66 61.84 213.66 53.99C213.67 44.8 213.65 35.62 213.65 26.45ZM180.17 12.37C180.18 10.48 180.16 10.4201 182.12 10.3001C186.42 10.0501 190.72 9.74 195.03 9.71C197.67 9.69 200.33 10.0901 202.97 10.4001C203.35 10.4401 203.79 10.9901 203.96 11.4101C204.14 11.8501 204.03 12.4001 204.03 12.9101C204.04 23.5101 204.04 34.11 204.04 44.7H204.01C204.01 55.57 203.99 66.45 204.03 77.32C204.04 78.58 203.67 78.98 202.39 78.97C195.5 78.91 188.62 78.92 181.74 78.97C180.47 78.98 180.12 78.58 180.13 77.32C180.15 55.68 180.16 34.03 180.17 12.37ZM128.72 77.19C129.01 75.2 129.37 73.21 129.54 71.21C129.65 69.88 130.33 69.68 131.45 69.69C136.36 69.72 141.27 69.7 146.18 69.71C148 69.72 149.46 69.01 150.58 67.58C151.69 66.18 151.82 64.5701 151.11 63.0501C150.31 61.3101 148.9 60.1 146.84 60.08C142.85 60.04 138.86 60.0701 134.87 60.0601C132.86 60.0501 132.77 59.87 133.57 58.07C138.8 46.19 146.88 36.75 158.04 30.1C161.59 27.98 165.47 26.39 169.22 24.6C170.29 24.09 170.6 24.75 170.6 25.72C170.61 29.99 170.63 34.2601 170.63 38.5201C170.64 42.9301 170.64 47.33 170.64 51.73H170.61C170.61 60.22 170.59 68.71 170.64 77.19C170.65 78.57 170.23 79.02 168.84 79.01C155.99 78.96 143.14 78.98 130.29 78.98C128.51 78.98 128.47 78.91 128.72 77.19ZM115.15 88.7701C130.1 88.7801 145.07 88.7901 160.03 88.8001C170.77 88.8101 181.51 88.8001 192.24 88.8001H268.78C270.99 88.8001 270.98 88.81 270.98 90.94C270.99 94.43 270.96 97.9101 271.04 101.4C271.07 102.68 270.55 103.1 269.34 103.09C261.67 103.06 254.01 103.07 246.35 103.07C236.8 103.07 227.26 103.08 217.72 103.07C217.02 103.07 216.33 103.07 215.64 103.07C215.62 103.07 215.61 103.07 215.6 103.07H210.64C210.18 103.07 209.71 103.07 209.25 103.07H205.09C202.4 103.07 200.21 105.25 200.21 107.95C200.21 110.64 202.39 112.83 205.09 112.83H215.6H254.08C252.96 115.04 251.24 116.37 249.33 117.45C247.41 118.52 245.32 118.96 243.13 119.05C241.06 119.14 239.02 119.49 237.94 121.53C237.47 122.42 237.23 123.5 237.1 124.52C236.76 127.25 236.64 130.01 236.24 132.72C235.39 138.37 233.2 143.53 230.16 148.34C225.76 155.3 219.96 160.81 212.75 164.76C205.95 168.49 198.61 170.17 190.84 170.14C183.28 170.11 176.09 168.5 169.42 164.98C163.13 161.66 157.93 157.02 153.64 151.33C150.52 147.19 148.18 142.64 146.73 137.7C145.54 133.61 144.73 129.45 144.92 125.1C145.05 122.38 143.46 119.66 140.12 119.23C138.09 118.97 136.02 118.72 134.08 118.1C131.4 117.25 129.3 115.48 127.64 112.84H166.13H176.62C179.32 112.84 181.51 110.65 181.51 107.95C181.51 105.25 179.32 103.06 176.62 103.06H166.13C166.12 103.06 166.11 103.06 166.11 103.06C153.35 103.06 140.59 103.06 127.83 103.06C123.61 103.06 119.39 103.07 115.17 103.05C113.52 103.05 113.37 102.89 113.36 101.22C113.34 97.69 113.33 94.16 113.32 90.62C113.32 88.78 113.33 88.7701 115.15 88.7701Z" fill="#008DB8"/>
<path d="M309.22 266.89C309.32 255.18 307.56 243.82 303.39 232.82C300.91 226.28 297.78 220.08 293.9 214.3C287.31 204.45 279.17 196.08 269.23 189.54C268.49 189.05 268.18 188.47 268.33 187.58C268.56 186.13 268.69 184.67 268.93 183.22C269.3 180.92 268.42 179.18 266.86 177.54C262.53 173 258.32 168.34 253.98 163.8C250.55 160.21 246.48 161.46 245.04 165.38C243.74 168.9 242.32 172.37 240.88 175.83C240.7 176.24 240.02 176.77 239.64 176.72C238.15 176.53 236.69 176.11 235.21 175.82C231.77 175.15 230.1 175.49 228.1 177.98C226.45 180.05 224.75 182.12 222.86 183.97C215.15 191.51 205.77 195.32 195.08 195.82C187.61 196.17 180.42 194.73 173.5 191.84C166.31 188.84 160.07 184.58 155.32 178.32C153.65 176.12 151.61 174.97 148.78 175.63C146.1 176.25 143.42 176.81 140.74 177.44C139.96 177.63 139.26 177.76 138.9 176.85C137.45 173.1 135.88 169.39 134.62 165.57C133.39 161.86 129.06 160.43 126.34 163.2C121.52 168.1 116.85 173.15 112.12 178.14C110.91 179.42 110.42 180.91 110.63 182.67C110.88 184.76 111.04 186.87 111.3 188.97C111.42 189.92 111.28 190.59 110.35 191.16C109.03 191.96 107.81 192.96 106.58 193.9C94.9699 202.8 85.7799 213.73 79.3199 226.84C77.2699 231.01 75.5899 235.41 74.2199 239.84C72.8199 244.42 71.5199 249.13 71.0499 253.86C70.3599 260.83 70.4099 267.87 70.2399 274.89C70.1699 277.75 72.4199 279.91 75.2799 279.93C78.3999 279.96 81.5199 279.95 84.6399 279.95C96.2499 279.96 107.87 279.97 119.48 279.93C120.74 279.92 121.21 280.24 121.33 281.58C121.69 285.92 122.19 290.25 122.7 294.57C122.91 296.42 123.84 297.92 125.6 298.62C126.55 298.99 127.66 299.05 128.7 299.05C136.12 299.06 143.53 299.06 150.95 299.06C150.99 299.06 151.02 299.07 151.05 299.07H161.82C164.44 299.07 166.56 296.95 166.56 294.33C166.56 291.71 164.44 289.59 161.82 289.59H155.13C155.13 289.58 155.14 289.57 155.14 289.57C147.99 289.57 140.83 289.58 133.68 289.59C132.31 289.6 131.8 289.25 131.64 287.8C130.63 278.23 129.49 268.66 128.44 259.09C127.61 251.57 126.89 244.04 126.07 236.51C125.26 229.04 124.38 221.57 123.56 214.09C123.05 209.49 122.57 204.88 122.1 200.28C121.58 195.36 121.09 190.43 120.55 185.5C120.38 183.99 120.72 182.79 121.9 181.69C123.65 180.08 125.21 178.27 126.86 176.56C127.16 176.24 127.52 175.98 128.04 175.51C128.86 177.51 129.62 179.31 130.33 181.12C132.81 187.47 135.28 193.82 137.74 200.17C139.71 205.24 141.67 210.32 143.66 215.39C145.46 219.98 147.27 224.58 149.12 229.16C149.97 231.28 151.7 232.21 153.9 232.21C166.06 232.24 178.23 232.24 190.39 232.24C201.77 232.24 213.16 232.2 224.54 232.27C227.61 232.29 229.68 231.19 230.79 228.2C232.49 223.57 234.34 218.99 236.15 214.4C238.61 208.15 241.1 201.9 243.55 195.64C245.97 189.47 248.35 183.27 250.75 177.09C250.95 176.58 251.27 176.12 251.64 175.43C254.17 178.12 256.52 180.57 258.78 183.08C259.09 183.42 259.14 184.12 259.09 184.62C258.56 189.73 257.97 194.83 257.4 199.93C256.83 205.04 256.27 210.14 255.71 215.24C255.08 221.07 254.44 226.91 253.81 232.75C253.26 237.86 252.73 242.97 252.17 248.07C251.56 253.68 250.93 259.28 250.32 264.89C249.75 270.18 249.2 275.47 248.65 280.76C248.39 283.18 248.13 285.59 247.9 288.01C247.79 289.19 247.08 289.54 246.03 289.54C243.18 289.54 240.33 289.55 237.49 289.55H198.05H190.02C187.39 289.55 185.26 291.68 185.26 294.31C185.26 296.94 187.39 299.07 190.02 299.07H199.32C205.97 299.07 212.63 299.08 219.28 299.07C229.93 299.06 240.57 299.01 251.22 299.05C253.78 299.06 256.02 298.03 256.66 294.9C256.84 294.01 256.94 293.09 257.04 292.18C257.44 288.67 257.9 285.17 258.2 281.65C258.33 280.18 258.99 279.9 260.32 279.91C267.62 279.96 274.92 279.93 282.22 279.94C289.42 279.94 296.64 279.84 303.83 279.98C307.04 280.05 309.36 277.58 309.27 274.59C309.19 272.03 309.2 269.45 309.22 266.89ZM118.16 270.34C106 270.34 93.8499 270.34 81.6799 270.33C79.9199 270.33 79.8999 270.27 79.8599 268.58C79.7099 261.96 80.0699 255.37 81.4199 248.87C82.5399 243.44 84.3199 238.2 86.6199 233.14C92.1699 220.93 100.42 210.86 110.92 202.59C111.24 202.33 111.59 202.11 111.94 201.89C112.08 201.8 112.28 201.79 112.62 201.7C112.86 203.81 113.09 205.76 113.3 207.71C113.88 213.23 114.45 218.75 115.04 224.26C115.57 229.23 116.15 234.19 116.69 239.16C117.29 244.67 117.86 250.19 118.46 255.71C118.93 260 119.44 264.28 119.87 268.56C120.04 270.28 119.94 270.33 118.16 270.34ZM236.5 187.26C232.88 196.39 229.29 205.55 225.7 214.7C224.89 216.79 224.1 218.89 223.35 221C222.94 222.15 222.26 222.58 221 222.58C210.58 222.53 200.17 222.55 189.75 222.55V222.52C179.29 222.52 168.83 222.51 158.36 222.54C157.18 222.55 156.61 222.15 156.17 220.99C153.07 212.93 149.87 204.91 146.71 196.87C145.54 193.89 144.4 190.9 143.22 187.93C142.93 187.22 143.05 186.73 143.78 186.54C145.2 186.17 146.62 185.8 148.05 185.58C148.43 185.52 148.99 185.94 149.3 186.29C155.01 192.72 162.06 197.25 169.91 200.55C179.86 204.73 190.21 206.53 200.96 204.84C208.32 203.68 215.15 201.07 221.45 197C226.03 194.04 230.1 190.54 233.64 186.41C234.26 185.69 234.89 185.43 235.8 185.74C236.63 186 236.85 186.38 236.5 187.26ZM299.69 269C299.67 269.88 299.31 270.26 298.48 270.31C298.16 270.33 297.84 270.34 297.52 270.34C285.5 270.34 273.47 270.34 261.45 270.33C259.49 270.33 259.48 270.27 259.69 268.28C260.49 260.76 261.24 253.23 262.06 245.7C262.86 238.22 263.74 230.75 264.56 223.27C265.14 217.98 265.65 212.69 266.21 207.4C266.46 205 266.79 202.6 267.11 199.97C267.72 200.32 268.21 200.54 268.61 200.85C276.64 207.06 283.28 214.48 288.51 223.2C292.18 229.33 294.95 235.84 296.8 242.72C299.11 251.3 299.89 260.1 299.69 269Z" fill="#008DB8"/>
</svg>
