<svg width="116" height="137" viewBox="0 0 116 137" fill="none" xmlns="http://www.w3.org/2000/svg">
<path d="M103.7 61.12C111.17 55.15 115.24 47.1201 115.89 37.0301C116.64 25.3801 112.79 16.33 104.33 9.88003C95.87 3.43003 83.0601 0.170008 65.9001 0.110008L30.49 0.0300516C25.82 0.0200516 21.8201 3.38001 21.0201 7.99001L0.670094 125.59C-0.339906 131.45 4.17005 136.82 10.12 136.82H53.6C70.2 136.82 83.27 133.25 92.83 126.11C102.38 118.97 107.6 108.79 108.47 95.57C108.91 88.68 107.64 82.78 104.66 77.86C104.02 76.81 103.34 75.8301 102.59 74.9201C99.18 70.7201 99.47 64.5 103.7 61.12Z" fill="#008DB8"/>
<path d="M86.99 63.65L44.39 40.0501C42.77 39.1501 40.7399 40.13 40.4399 41.96L32.6 90.01C32.25 92.16 34.46 93.8 36.42 92.86L86.86 68.41C88.82 67.46 88.89 64.7 86.99 63.65Z" fill="#F7F7F7"/>
<path d="M89.09 9.29005C89.76 8.40005 100.75 12.02 106.24 21.45C113.21 33.42 107.34 47.9 106.42 47.82C105.66 47.76 108.57 37.84 103.58 26.64C98.43 15.09 88.43 10.18 89.09 9.29005Z" fill="white"/>
<path opacity="0.47" d="M60.44 4.4399C60.58 5.0199 53.72 7.02991 45.57 7.06991C37.88 7.10991 30.86 5.39995 30.87 4.85995C30.87 4.49995 34.0301 4.74991 42.4301 4.69991C55.3301 4.60991 60.32 3.9499 60.44 4.4399Z" fill="white"/>
<path opacity="0.44" d="M63.8801 85.7701C64.1901 86.2901 57.28 91.7901 48.11 95.7901C38.59 99.9301 29.54 101.18 29.37 100.59C29.23 100.1 35.2901 98.46 46.9301 93.45C58.3101 88.54 63.6201 85.3301 63.8801 85.7701Z" fill="white"/>
<path d="M14.3101 133.2C14.1501 133.65 7.63007 133.4 5.14007 129.31C4.11007 127.61 4.11 125.82 5.2 119.98C6.55 112.67 8.40006 105.4 8.76006 105.48C9.03006 105.54 8.38005 109.91 7.37005 121.31C7.11005 124.23 6.94006 126.49 8.26006 128.7C10.3201 132.17 14.4501 132.83 14.3101 133.2Z" fill="white"/>
<path opacity="0.44" d="M37.48 42.25C37.17 42.19 36.5801 38.2701 38.9001 36.3001C40.6001 34.8601 42.95 35.2701 44.34 35.5101C45.02 35.6301 46.7001 35.9901 50.6801 38.7901C53.3001 40.6401 56.2401 43.06 56.0601 43.32C55.8701 43.59 52.21 41.6801 48.98 39.5301C46.72 38.0201 45.8 37.16 44 36.98C43.45 36.93 41.35 36.79 39.7 38.11C37.7 39.7 37.73 42.3 37.48 42.25Z" fill="white"/>
<path opacity="0.7" d="M100.59 96.5799C101.67 97.0199 101.06 109.65 93.0799 118.19C82.9499 129.02 66.7499 127.08 66.5699 126.09C66.4199 125.27 77.22 125.44 87.12 116.91C97.33 108.1 99.5099 96.1299 100.59 96.5799Z" fill="white"/>
<path opacity="0.06" d="M28.4499 114.74C28.0999 112.37 47.18 113.15 66.41 97.6C76.12 89.74 80.5699 82.01 84.3299 83.49C88.2499 85.04 89.6199 95.87 85.8399 103.36C75.7099 123.43 28.9899 118.44 28.4499 114.74Z" fill="white"/>
<path opacity="0.06" d="M90.3499 52.5601C85.7099 54.3901 81.7499 44.04 67.2199 36.02C52.0199 27.63 39.06 29.43 38.77 25.61C38.52 22.36 47.76 18.53 55.42 17.28C66.73 15.44 85.5399 17.46 92.0799 30.58C96.2699 38.98 94.8499 50.7801 90.3499 52.5601Z" fill="white"/>
</svg>
