<svg width="373" height="430" viewBox="0 0 373 430" fill="none" xmlns="http://www.w3.org/2000/svg">
<path opacity="0.19" d="M250.98 337.45C304.06 337.45 347.09 294.42 347.09 241.34C347.09 188.26 304.06 145.23 250.98 145.23C197.9 145.23 154.87 188.26 154.87 241.34C154.87 294.42 197.9 337.45 250.98 337.45Z" fill="#008DB8"/>
<path d="M114.27 51.58C112.54 48.07 108.58 46.7801 104.59 48.4301C103.82 48.7501 103.07 49.14 102.33 49.52C15.2201 93.74 -23.46 197.63 15.23 287.14C18.38 294.44 21.8398 301.37 25.5698 307.96V307.97C25.6198 308.05 25.6702 308.14 25.7202 308.23C25.7602 308.3 25.7998 308.38 25.8398 308.45C25.8398 308.45 25.8398 308.45 25.8398 308.44C26.5298 309.62 27.4601 311.17 28.1201 312.19C30.4301 315.79 34.1998 316.84 37.5698 314.98C40.8898 313.14 41.9602 309.25 40.1802 305.46C39.8302 304.73 39.42 304.02 39.02 303.32C38.37 302.17 37.6998 301.04 37.0298 299.91C37.0298 299.91 37.03 299.91 37.04 299.91C20.8 271.34 12.7598 237.83 15.5098 202.63C20.1998 142.67 49.6999 97.3 101.36 66.34C104.47 64.48 107.8 62.9801 110.94 61.1701C114.77 58.9701 116.03 55.14 114.27 51.58Z" fill="#008DB8"/>
<path d="M236.29 381.44C224.87 374.42 213.38 367.52 201.85 360.69C199.98 359.58 197.79 358.67 195.65 358.4C186.58 357.22 179.77 363.31 179.46 372.74C179.31 377.26 179.43 381.78 179.43 387.02C169.72 385.66 160.77 384.93 152.06 383.11C119.8 376.35 91.4101 361.19 68.9501 340.26C67.9101 339.18 66.8599 337.99 65.7699 336.97C62.3299 333.73 58.0198 333.63 54.9198 336.52C51.8598 339.37 51.75 343.83 54.68 347.4L60.5199 352.53C60.5299 352.5 60.5299 352.48 60.5399 352.45C86.5499 376.47 119.41 391.9 158.73 398.77C165.43 399.94 172.26 400.35 179.46 401.17C179.46 404.53 179.69 407.73 179.42 410.88C178.66 419.6 181.67 426.07 190.01 429.61H196.72C198.34 428.82 200.03 428.15 201.57 427.23C213.19 420.27 224.83 413.35 236.35 406.23C246.67 399.82 246.62 387.79 236.29 381.44ZM194.01 415.54V372.58C205.98 379.59 217.49 386.33 229.71 393.48C217.66 400.93 206.15 408.04 194.01 415.54Z" fill="#008DB8"/>
<path d="M193.92 43.4999C193.92 48.7799 194 52.9599 193.9 57.1299C193.6 69.8699 182.23 76.1399 171.22 69.5899C159.7 62.7399 148.24 55.79 136.79 48.81C126.94 42.8 126.74 30.5299 136.49 24.4799C148.12 17.2699 159.83 10.19 171.63 3.25995C182.24 -2.97005 193.41 3.36989 193.8 15.6999C193.9 18.9099 194.06 22.1399 193.76 25.3199C193.43 28.8599 194.9 29.8199 198.22 29.9799C220.23 31.0099 241.42 35.95 261.39 45.14C320.27 72.25 358.1 117.33 369.22 181.1C383 260.13 354.81 323.4 289.48 370.05C283.49 374.33 276.79 377.65 270.3 381.17C265.24 383.92 261.2 382.96 259.09 378.95C257.02 375.02 258.69 371.05 263.71 368.52C290.62 354.96 312.51 335.73 329.36 310.79C398.11 209.07 339.41 69.2399 218.5 46.8199C210.6 45.3499 202.55 44.6499 193.92 43.4999ZM179.41 15.26C167.13 22.69 155.67 29.62 143.6 36.91C155.85 44.07 167.41 50.8199 179.41 57.8299C179.41 43.4899 179.41 29.92 179.41 15.26Z" fill="#008DB8"/>
<path d="M186.56 175.57C167.89 175.57 149.22 175.64 130.55 175.48C128.53 175.46 125.98 174.64 124.61 173.26C121.67 170.3 123.54 165.39 127.72 164.35C128.9 164.06 130.17 164.09 131.4 164.09C168.18 164.07 204.96 164.07 241.74 164.06C242.41 164.06 243.09 164.04 243.76 164.07C247.45 164.27 250 166.6 250.06 169.79C250.12 173.14 247.53 175.55 243.58 175.56C224.58 175.59 205.57 175.57 186.56 175.57Z" fill="#008DB8"/>
<path d="M186.61 192.93C205.62 192.93 224.63 192.91 243.64 192.95C247.4 192.96 249.93 195.22 250.05 198.45C250.18 201.78 247.54 204.26 243.7 204.41C242.91 204.44 242.13 204.42 241.34 204.42C228.74 204.43 216.14 204.43 203.55 204.44C179.82 204.44 156.08 204.44 132.35 204.44C130.89 204.44 129.4 204.52 127.98 204.27C125.18 203.78 123.18 201.23 123.24 198.52C123.31 195.64 125.56 193.28 128.58 192.99C129.58 192.89 130.6 192.94 131.62 192.94C149.95 192.93 168.28 192.93 186.61 192.93Z" fill="#008DB8"/>
<path d="M160.61 221.68C170.72 221.68 180.84 221.56 190.94 221.78C192.97 221.83 195.48 222.68 196.86 224.07C199.58 226.82 198 231.57 194.27 232.73C192.91 233.15 191.39 233.18 189.95 233.19C170.51 233.22 151.07 233.21 131.64 233.21C131.08 233.21 130.52 233.23 129.95 233.2C125.77 233.03 123.14 230.69 123.24 227.24C123.34 223.88 125.81 221.72 129.93 221.7C140.16 221.64 150.38 221.68 160.61 221.68Z" fill="#008DB8"/>
<path d="M260.15 129.61C211.19 129.59 162.24 129.6 113.28 129.61C98.2498 129.61 88.6902 139.23 88.6802 154.32C88.6802 159.76 88.6702 165.19 88.6802 170.63C88.6602 170.74 88.6602 170.85 88.6602 170.96V179.73C88.6602 179.83 88.6599 179.92 88.6699 180.02C88.8199 183.07 91.3299 185.48 94.3999 185.48H94.4399C97.6099 185.48 100.18 182.91 100.18 179.73V172.72H100.19C100.19 166.3 100.2 159.87 100.2 153.45C100.2 145.82 104.97 141.1 112.7 141.1C161.99 141.09 211.28 141.09 260.58 141.12C268.45 141.12 273.1 145.84 273.11 153.77C273.12 187.47 273.11 221.17 273.09 254.86C273.09 263.15 268.47 267.69 260.05 267.7C234.39 267.72 208.73 267.8 183.07 267.67C177.23 267.64 172.38 269.29 167.98 273.12C159.84 280.2 151.48 287.04 143.21 293.98C142.55 294.53 141.86 295.04 140.59 296.02C140.59 290.29 140.63 285.36 140.59 280.42C140.52 272.28 135.92 267.75 127.77 267.73C122.7 267.72 117.64 267.77 112.57 267.71C104.91 267.62 100.2 262.89 100.2 255.21C100.19 243.49 100.19 231.78 100.19 220.06H100.18V219.91C100.18 216.75 97.6102 214.18 94.4502 214.18H94.3901C91.2601 214.18 88.7299 216.68 88.6699 219.78C88.6599 219.82 88.6602 219.87 88.6602 219.91V228.72C88.6602 228.75 88.6599 228.79 88.6699 228.82C88.6599 237.35 88.6602 245.87 88.6602 254.4C88.6702 269.61 98.3001 279.19 113.56 279.22C118.6 279.23 123.63 279.22 129.06 279.22C129.06 284.62 129.18 289.64 129.03 294.66C128.88 300.11 130.72 304.43 135.81 306.78C140.87 309.11 145.38 307.77 149.5 304.2C158.08 296.77 166.8 289.49 175.35 282.02C177.61 280.04 179.95 279.18 182.96 279.19C208.62 279.27 234.28 279.24 259.94 279.21C274.97 279.2 284.61 269.55 284.62 254.53C284.63 221.06 284.64 187.58 284.62 154.11C284.61 139.26 274.98 129.61 260.15 129.61Z" fill="#008DB8"/>
</svg>
