<svg width="341" height="348" viewBox="0 0 341 348" fill="none" xmlns="http://www.w3.org/2000/svg">
<path opacity="0.19" d="M230.1 241.72C283.18 241.72 326.21 198.69 326.21 145.61C326.21 92.5299 283.18 49.5 230.1 49.5C177.02 49.5 133.99 92.5299 133.99 145.61C133.99 198.69 177.02 241.72 230.1 241.72Z" fill="#008DB8"/>
<path d="M169.69 220.17C172.5 220.17 174.78 217.89 174.78 215.08V210.47C187.19 208.49 194.75 199.6 195.98 190.83C197.38 180.85 190.94 172.26 179.59 168.96C172.14 166.79 163.87 164.15 159.05 161.04C156.4 159.33 156.56 156.5 156.74 155.36C157.21 152.53 159.51 149.07 164.54 147.82C166.35 147.37 168.06 147.14 169.64 147.06C169.65 147.06 169.67 147.06 169.68 147.06C169.86 147.06 170.03 147.05 170.2 147.03C177.61 146.83 182.18 150.03 182.48 150.25C184.72 151.92 187.89 151.48 189.58 149.25C191.28 147.01 190.84 143.82 188.6 142.12C188.3 141.89 183.15 138.07 174.77 137.08V133.34C174.77 130.53 172.49 128.25 169.68 128.25C166.87 128.25 164.59 130.53 164.59 133.34V137.4C163.77 137.55 162.94 137.72 162.09 137.93C154 139.94 147.95 146.12 146.69 153.68C145.62 160.08 148.24 166.18 153.51 169.59C158.28 172.67 165.01 175.32 176.72 178.73C183.22 180.62 186.56 184.52 185.87 189.42C185.09 194.98 179.27 200.64 169.64 200.7C161.64 200.75 158.48 200.45 151.68 196.79C149.2 195.46 146.12 196.38 144.78 198.86C143.45 201.33 144.37 204.42 146.85 205.76C153.82 209.52 158.37 210.57 164.57 210.82V215.09C164.6 217.89 166.88 220.17 169.69 220.17Z" fill="#008DB8"/>
<path d="M339.72 213.68C339.71 210.96 337.56 208.73 334.84 208.62L295.33 206.98L265.03 203.09C251.69 201.38 238.09 201.87 224.91 204.49C226.01 202.5 227.02 200.45 227.91 198.33C229 195.74 227.77 192.75 225.18 191.67C222.58 190.59 219.6 191.81 218.52 194.4C216.36 199.55 213.41 204.28 209.76 208.5C208.49 208.92 207.23 209.36 205.98 209.83L201.96 211.32C196.25 213.44 191.98 217.67 189.73 222.81C183.52 225.31 176.96 226.59 170.2 226.59C141.33 226.59 117.83 203.1 117.83 174.22C117.83 161.56 122.38 149.44 130.64 139.93C131.9 139.51 133.16 139.07 134.41 138.61L138.43 137.12C144.14 135 148.4 130.77 150.66 125.64C156.87 123.13 163.43 121.85 170.2 121.85C199.08 121.85 222.57 145.34 222.57 174.22C222.57 175.11 222.55 175.96 222.51 176.75C222.36 179.56 224.52 181.95 227.33 182.1C227.42 182.1 227.51 182.11 227.6 182.11C230.29 182.11 232.54 180 232.68 177.28C232.73 176.32 232.75 175.29 232.75 174.22C232.75 139.73 204.69 111.67 170.2 111.67C164.06 111.67 158.06 112.54 152.28 114.28C152.1 112.89 151.78 111.49 151.31 110.1C149.97 106.17 147.55 102.72 144.29 100.14C141.03 97.57 137.12 96 132.99 95.61L112.96 93.71L120.62 87.87L167.88 87.79C167.99 87.79 168.1 87.79 168.2 87.79C177.23 87.79 185.2 82.08 188.3 73.88H188.81C198.9 74.05 207.66 67.14 210.01 57.53C216.69 54.63 221.69 48.4201 222.75 40.8101C222.89 39.8401 222.96 38.8301 222.96 37.8101C222.96 28.4201 216.95 20.2 208.01 17.35L159.43 1.83996C152.85 -0.270038 145.71 0.0599959 139.34 2.75L92.3997 22.62C89.8097 23.72 88.5997 26.7 89.6997 29.29C90.7997 31.88 93.7899 33.09 96.3699 31.99L143.31 12.12C147.44 10.37 152.06 10.16 156.33 11.53L204.91 27.05C209.61 28.55 212.77 32.8801 212.77 37.8101C212.77 38.3601 212.74 38.87 212.66 39.39C211.88 44.98 207.09 49.13 201.46 49.13C201.39 49.13 201.32 49.13 201.25 49.13L157.44 48.35C156.3 48.33 155.17 48.7 154.26 49.39L96.4097 93.5C94.7397 94.77 94.0299 96.9299 94.5999 98.9499C95.1799 100.97 96.9298 102.42 99.0098 102.62L131.99 105.75C134.16 105.96 136.22 106.78 137.93 108.13C139.64 109.49 140.92 111.3 141.62 113.37C143.59 119.2 140.61 125.45 134.84 127.58L130.82 129.07C113.58 135.46 94.8299 137.6 76.5999 135.26L50.5098 131.9L50.3198 95.36L50.0898 51.58L77.6199 39.93C80.2099 38.83 81.4198 35.85 80.3198 33.26C79.2198 30.67 76.2297 29.4601 73.6497 30.5601L44.0498 43.09L5.44971 41.48C4.04971 41.42 2.70971 41.94 1.69971 42.9C0.699707 43.87 0.139648 45.2 0.139648 46.59L0.599854 134.76C0.609854 137.48 2.75974 139.71 5.47974 139.82L44.9998 141.46L75.2898 145.35C80.5198 146.02 85.7798 146.35 91.0398 146.35C99.2098 146.35 107.37 145.54 115.39 143.95C110.31 153.13 107.59 163.51 107.59 174.21C107.59 208.7 135.65 236.76 170.14 236.76C176.28 236.76 182.27 235.89 188.05 234.16C188.23 235.55 188.55 236.95 189.02 238.33C191.73 246.34 198.92 252.04 207.34 252.84L227.36 254.74L219.7 260.58L172.44 260.66C163.25 260.51 155.15 266.26 152.01 274.57H151.51C151.4 274.57 151.28 274.57 151.17 274.57C141.22 274.57 132.64 281.42 130.32 290.91C123.63 293.81 118.64 300.03 117.57 307.66C116.12 318.05 122.32 327.91 132.32 331.11L180.9 346.63C183.77 347.55 186.74 348 189.7 348C193.55 348 197.39 347.23 200.98 345.71L296.24 305.38L334.83 306.99C334.9 306.99 334.97 306.99 335.04 306.99C336.36 306.99 337.62 306.48 338.57 305.56C339.57 304.59 340.13 303.26 340.13 301.87L339.72 213.68ZM168 77.59C167.97 77.59 167.93 77.59 167.9 77.59L133.99 77.65L138.85 73.9499L176.54 73.89C174.41 76.21 171.33 77.64 168 77.59ZM159.04 58.54L198.1 59.24C195.97 62 192.62 63.73 188.94 63.68C188.91 63.68 188.87 63.68 188.84 63.68L152.23 63.74L159.04 58.54ZM10.7898 129.83L10.3896 51.85L39.9397 53.08L40.1897 101.27L40.3398 131.05L10.7898 129.83ZM172.16 270.83C172.23 270.83 172.29 270.83 172.36 270.83C172.39 270.83 172.42 270.83 172.46 270.83L206.37 270.78L201.51 274.48L163.81 274.54C165.9 272.25 168.89 270.83 172.16 270.83ZM151.21 284.74C151.28 284.74 151.35 284.74 151.42 284.74C151.45 284.74 151.49 284.74 151.52 284.74L188.13 284.68L181.32 289.88L142.25 289.18C144.33 286.46 147.59 284.74 151.21 284.74ZM197.05 336.31C192.92 338.06 188.3 338.27 184.03 336.9L135.45 321.38C130.19 319.7 126.93 314.51 127.69 309.04C128.47 303.45 133.27 299.3 138.89 299.3C138.96 299.3 139.03 299.3 139.1 299.3L182.91 300.09C184.04 300.1 185.18 299.74 186.09 299.05L243.93 254.94C245.6 253.67 246.31 251.51 245.74 249.49C245.16 247.48 243.41 246.02 241.33 245.82L208.36 242.69C203.93 242.27 200.15 239.27 198.72 235.06C196.75 229.23 199.73 222.99 205.5 220.85L209.52 219.36C226.76 212.97 245.51 210.83 263.74 213.17L289.84 216.52L290.25 296.84L197.05 336.31ZM300.41 295.34L300.01 217.36L329.56 218.59L329.96 296.57L300.41 295.34Z" fill="#008DB8"/>
</svg>
