<svg width="301" height="411" viewBox="0 0 301 411" fill="none" xmlns="http://www.w3.org/2000/svg">
<path opacity="0.19" d="M204.25 192.58C257.33 192.58 300.36 149.55 300.36 96.47C300.36 43.3899 257.33 0.359985 204.25 0.359985C151.17 0.359985 108.14 43.3899 108.14 96.47C108.14 149.55 151.17 192.58 204.25 192.58Z" fill="#008DB8"/>
<path d="M19.4199 335.9C15.2699 346.92 10.27 357.92 6.26998 368.92C5.35998 371.81 11.13 370.27 14.27 369.92C19.93 369.29 22.67 368.63 26.34 368.27C37.33 367.18 45.27 364.92 56.27 363.92C57.27 363.92 59.27 364.92 60.27 365.92C71.27 378.92 78.27 392.92 91.27 402.92C92.27 403.92 93.27 400.92 94.27 398.92C105.27 362.92 118.27 327.92 130.07 292.97" stroke="#008DB8" stroke-width="12" stroke-miterlimit="10"/>
<path d="M50.9102 258C46.2602 266.92 44.2603 275.92 40.0303 284.92" stroke="#008DB8" stroke-width="12" stroke-miterlimit="10"/>
<path d="M225.1 258L270.21 369.52C270.4 370 270.01 370.51 269.5 370.45L218.25 364.09C218.02 364.06 217.79 364.15 217.64 364.34L185.52 403.81C185.18 404.22 184.52 404.11 184.35 403.6L145.97 292.95" stroke="#008DB8" stroke-width="12" stroke-miterlimit="10"/>
<path d="M138.01 241.15C177.962 241.15 210.35 208.762 210.35 168.81C210.35 128.858 177.962 96.47 138.01 96.47C98.0577 96.47 65.6699 128.858 65.6699 168.81C65.6699 208.762 98.0577 241.15 138.01 241.15Z" stroke="#008DB8" stroke-width="12" stroke-miterlimit="10"/>
<path d="M138.34 57.4201L164.57 42.5101C164.87 42.3401 165.25 42.42 165.45 42.7L183.36 67.0101C183.5 67.2001 183.74 67.3101 183.97 67.2801L214 64.32C214.34 64.29 214.66 64.51 214.73 64.85L221.21 94.32C221.26 94.55 221.43 94.74 221.66 94.82L250.28 104.36C250.61 104.47 250.8 104.8 250.73 105.14L244.67 134.68C244.62 134.91 244.7 135.16 244.88 135.32L267.18 155.67C267.43 155.9 267.48 156.29 267.27 156.57L249.69 181.1C249.55 181.29 249.52 181.55 249.62 181.77L261.71 209.42C261.85 209.74 261.73 210.11 261.43 210.28L235.39 225.54C235.18 225.66 235.06 225.88 235.05 226.12L234.86 256.29C234.86 256.63 234.6 256.92 234.26 256.96L204.26 260.33C204.02 260.36 203.82 260.51 203.72 260.72L191.25 288.19C191.11 288.5 190.75 288.66 190.42 288.56L161.67 279.43C161.44 279.36 161.19 279.41 161.01 279.57L138.45 299.63C138.19 299.86 137.8 299.86 137.55 299.63L114.99 279.57C114.81 279.41 114.56 279.36 114.33 279.43L85.5804 288.56C85.2504 288.66 84.9003 288.51 84.7503 288.19L72.2803 260.72C72.1803 260.5 71.9703 260.35 71.7403 260.33L41.7403 256.96C41.4003 256.92 41.1402 256.63 41.1402 256.29L40.9502 226.12C40.9502 225.88 40.8204 225.66 40.6104 225.54L14.5803 210.28C14.2803 210.11 14.1603 209.74 14.3003 209.42L26.3802 181.77C26.4802 181.55 26.4503 181.3 26.3103 181.1L8.75027 156.57C8.55027 156.29 8.59036 155.9 8.84036 155.67L31.1104 135.32C31.2904 135.16 31.3703 134.92 31.3203 134.68L25.2603 105.14C25.1903 104.8 25.3802 104.47 25.7102 104.36L54.3303 94.82C54.5603 94.74 54.7303 94.55 54.7803 94.32L61.2603 64.85C61.3303 64.51 61.6503 64.29 61.9903 64.32L92.0303 67.2801C92.2703 67.3001 92.5002 67.2001 92.6402 67.0101L110.54 42.71C110.74 42.43 111.12 42.3501 111.42 42.5201L137.65 57.4301C137.88 57.5401 138.13 57.5401 138.34 57.4201Z" stroke="#008DB8" stroke-width="12" stroke-miterlimit="10"/>
<path d="M139.33 126.57L151.32 150.87C151.5 151.24 151.86 151.5 152.28 151.56L179.1 155.46C180.14 155.61 180.56 156.89 179.8 157.62L160.39 176.54C160.09 176.83 159.95 177.25 160.02 177.66L164.6 204.37C164.78 205.41 163.69 206.2 162.76 205.71L138.77 193.1C138.4 192.91 137.96 192.91 137.59 193.1L113.6 205.71C112.67 206.2 111.58 205.41 111.76 204.37L116.34 177.66C116.41 177.25 116.27 176.83 115.97 176.54L96.5597 157.62C95.8097 156.89 96.2197 155.61 97.2597 155.46L124.08 151.56C124.49 151.5 124.85 151.24 125.04 150.87L137.03 126.57C137.52 125.63 138.87 125.63 139.33 126.57Z" stroke="#008DB8" stroke-width="11" stroke-miterlimit="10"/>
<path d="M23.7103 325.33C26.7703 326.57 28.2503 330.05 27.0103 333.11L23.9002 340.82C22.6602 343.88 19.1804 345.36 16.1204 344.12C13.0604 342.88 11.5804 339.4 12.8204 336.34L15.9302 328.63C17.1702 325.58 20.6503 324.1 23.7103 325.33Z" fill="#008DB8"/>
<path d="M42.0299 279.92C45.0999 281.16 46.58 284.65 45.34 287.72L42.2399 295.39C40.9999 298.46 37.5099 299.94 34.4399 298.7C31.3699 297.46 29.8898 293.97 31.1298 290.9L34.2299 283.23C35.4699 280.17 38.9699 278.68 42.0299 279.92Z" fill="#008DB8"/>
</svg>
