<svg width="116" height="138" viewBox="0 0 116 138" fill="none" xmlns="http://www.w3.org/2000/svg">
<path d="M103.24 61.63C110.71 55.66 114.78 47.63 115.43 37.54C116.19 25.89 112.33 16.84 103.88 10.39C95.42 3.94004 82.61 0.680017 65.45 0.620017L30.04 0.54C25.37 0.53 21.36 3.89002 20.57 8.50002L0.21001 126.1C-0.79999 131.96 3.71002 137.33 9.66002 137.33H53.14C69.74 137.33 82.82 133.76 92.37 126.62C101.92 119.48 107.13 109.3 108.01 96.08C108.45 89.19 107.18 83.29 104.21 78.37C103.57 77.32 102.88 76.34 102.14 75.43C98.72 71.23 99.01 65.01 103.24 61.63ZM86.4 68.92L35.97 93.37C34.01 94.32 31.8 92.6701 32.15 90.5301L39.99 42.48C40.28 40.64 42.31 39.66 43.93 40.56L86.53 64.16C88.44 65.22 88.36 67.97 86.4 68.92Z" fill="#008DB8"/>
</svg>
