<svg width="508" height="156" viewBox="0 0 508 156" fill="none" xmlns="http://www.w3.org/2000/svg">
<path d="M118.45 144.93L116.81 133.04C116.74 132.54 116.32 132.17 115.81 132.17H110.48C109.99 132.17 109.57 132.52 109.49 133L105.83 154.13C105.72 154.75 106.2 155.31 106.82 155.31H110.22C110.71 155.31 111.13 154.96 111.21 154.48L111.97 150.18L112.54 145.64C112.69 144.48 114.35 144.46 114.53 145.61L115.92 154.46C116 154.95 116.42 155.31 116.91 155.31H119.04C119.42 155.31 119.77 155.1 119.94 154.76L124.09 146.5C124.62 145.44 126.23 146.01 125.97 147.17L125.42 149.64L124.64 154.14C124.53 154.76 125.01 155.32 125.63 155.32H129.06C129.55 155.32 129.97 154.97 130.05 154.49L133.71 133.36C133.82 132.74 133.34 132.18 132.72 132.18H127.3C126.91 132.18 126.56 132.4 126.39 132.75L120.36 145.24C119.92 146.13 118.59 145.92 118.45 144.93Z" fill="white"/>
<path d="M155.87 135.94C155.16 134.64 154.21 133.64 153.03 132.94C151.85 132.24 150.47 131.88 148.89 131.85C146.33 131.8 144.06 132.58 142.09 134.2C140.91 135.16 139.93 136.37 139.15 137.82C138.37 139.27 137.82 140.86 137.51 142.58C137.2 144.3 137.1 145.8 137.21 147.07C137.4 149.64 138.22 151.7 139.67 153.24C141.12 154.78 143.05 155.57 145.46 155.62C147.09 155.65 148.56 155.36 149.87 154.75C151.18 154.14 152.31 153.32 153.28 152.28C154.24 151.24 155.03 150.04 155.64 148.68C156.25 147.32 156.67 145.89 156.9 144.39C157.13 142.89 157.2 141.55 157.11 140.38C156.99 138.73 156.58 137.25 155.87 135.94ZM151.13 145.59C150.72 147.48 150.04 148.92 149.11 149.91C148.18 150.9 147.06 151.36 145.77 151.3C143.8 151.23 142.76 149.84 142.65 147.15C142.6 146.31 142.67 145.13 142.87 143.61C143.19 141.14 143.84 139.27 144.82 138.01C145.81 136.74 147.05 136.15 148.56 136.22C150.51 136.33 151.54 137.7 151.64 140.35C151.72 141.95 151.55 143.69 151.13 145.59Z" fill="white"/>
<path d="M174.02 147.31C173.54 150.09 172.14 151.44 169.81 151.37C169 151.34 168.38 151.11 167.94 150.67C167.5 150.24 167.25 149.63 167.2 148.84C167.16 148.36 167.17 147.86 167.23 147.33L169.59 133.36C169.69 132.75 169.22 132.19 168.6 132.19H165.17C164.68 132.19 164.26 132.54 164.18 133.03L161.75 147.31C161.56 148.93 161.76 150.38 162.35 151.64C162.94 152.91 163.85 153.89 165.09 154.58C166.33 155.27 167.79 155.64 169.48 155.67C172.19 155.71 174.44 154.98 176.23 153.48C178.02 151.98 179.09 149.91 179.46 147.3L181.83 133.38C181.93 132.77 181.46 132.2 180.84 132.2H177.45C176.96 132.2 176.54 132.55 176.46 133.04L174.02 147.31Z" fill="white"/>
<path d="M197.42 143.33L193.45 132.83C193.3 132.44 192.93 132.18 192.51 132.18H188.74C188.25 132.18 187.83 132.53 187.75 133.01L184.09 154.14C183.98 154.76 184.46 155.32 185.08 155.32H188.47C188.96 155.32 189.38 154.97 189.46 154.49L191.23 144.34C191.41 143.33 192.8 143.2 193.16 144.16L197.14 154.68C197.29 155.07 197.66 155.33 198.08 155.33H201.8C202.29 155.33 202.71 154.98 202.79 154.5L206.46 133.37C206.57 132.75 206.09 132.19 205.47 132.19H202.08C201.59 132.19 201.17 132.54 201.09 133.02L199.34 143.16C199.18 144.16 197.79 144.29 197.42 143.33Z" fill="white"/>
<path d="M211.52 136.49H215.75C216.37 136.49 216.85 137.05 216.74 137.67L213.88 154.15C213.77 154.77 214.25 155.33 214.87 155.33H218.28C218.77 155.33 219.19 154.98 219.27 154.5L222.24 137.33C222.32 136.85 222.74 136.5 223.23 136.5H228.28C228.77 136.5 229.19 136.15 229.27 135.67L229.67 133.37C229.78 132.75 229.3 132.19 228.68 132.19H211.93C211.44 132.19 211.02 132.54 210.94 133.02L210.53 135.32C210.42 135.92 210.9 136.49 211.52 136.49Z" fill="white"/>
<path d="M232.27 155.32H235.66C236.15 155.32 236.57 154.97 236.65 154.49L240.31 133.36C240.42 132.74 239.94 132.18 239.32 132.18H235.94C235.45 132.18 235.03 132.53 234.95 133.01L231.28 154.14C231.17 154.76 231.65 155.32 232.27 155.32Z" fill="white"/>
<path d="M256.36 143.33L252.39 132.83C252.24 132.44 251.87 132.18 251.45 132.18H247.68C247.19 132.18 246.77 132.53 246.69 133.01L243.03 154.14C242.92 154.76 243.4 155.32 244.02 155.32H247.42C247.91 155.32 248.33 154.97 248.41 154.49L250.18 144.34C250.36 143.33 251.75 143.2 252.11 144.16L256.09 154.68C256.24 155.07 256.61 155.33 257.03 155.33H260.75C261.24 155.33 261.66 154.98 261.74 154.5L265.41 133.37C265.52 132.75 265.04 132.19 264.42 132.19H261.03C260.54 132.19 260.12 132.54 260.04 133.02L258.29 143.16C258.12 144.16 256.72 144.29 256.36 143.33Z" fill="white"/>
<path d="M276.89 137.86C277.84 136.66 279.05 136.08 280.51 136.14C281.5 136.17 282.26 136.47 282.79 137.04C283.19 137.47 283.47 138.09 283.61 138.9C283.7 139.39 284.1 139.75 284.6 139.75L287.8 139.76C288.42 139.76 288.89 139.21 288.8 138.59C288.5 136.61 287.77 135.06 286.6 133.93C285.21 132.58 283.22 131.89 280.64 131.85C277.68 131.8 275.19 132.82 273.15 134.92C271.11 137.02 269.85 139.86 269.36 143.46L269.23 144.41C268.96 146.55 269.12 148.47 269.69 150.18C270.26 151.89 271.22 153.22 272.55 154.17C273.89 155.12 275.52 155.61 277.46 155.63C279.48 155.66 281.33 155.4 282.99 154.84C284.53 154.33 285.72 153.62 286.58 152.71C286.72 152.56 286.8 152.37 286.83 152.17L288.09 144.12C288.19 143.51 287.71 142.96 287.1 142.96H279.92C279.43 142.96 279.01 143.31 278.93 143.79L278.61 145.61C278.5 146.23 278.98 146.79 279.6 146.79H280.95C281.58 146.79 282.06 147.37 281.94 147.99L281.55 149.95C281.49 150.23 281.33 150.49 281.08 150.63C280.19 151.12 279.19 151.35 278.06 151.33C275.92 151.3 274.77 150.01 274.61 147.46C274.52 146.4 274.63 144.92 274.93 143.01C275.28 140.78 275.93 139.06 276.89 137.86Z" fill="white"/>
<path d="M311.78 136.72C312.48 136.27 313.28 136.06 314.2 136.08C315.13 136.1 315.8 136.38 316.21 136.91C316.48 137.27 316.66 137.7 316.73 138.22C316.8 138.71 317.25 139.05 317.75 139.05H321.08C321.7 139.05 322.19 138.51 322.12 137.9C321.93 136.26 321.26 134.91 320.12 133.85C318.73 132.56 316.89 131.89 314.6 131.85C312.89 131.83 311.32 132.1 309.88 132.66C308.44 133.22 307.31 134.01 306.49 135.02C305.67 136.03 305.23 137.18 305.15 138.48C304.97 141.31 306.71 143.55 310.36 145.19L312.97 146.27C314.5 146.93 315.14 147.85 314.91 149.05C314.77 149.79 314.4 150.37 313.79 150.79C313.18 151.21 312.42 151.42 311.51 151.42C310.28 151.42 309.41 151.12 308.89 150.51C308.52 150.07 308.3 149.49 308.22 148.76C308.17 148.23 307.75 147.81 307.22 147.81L303.83 147.8C303.22 147.8 302.73 148.32 302.79 148.93C302.96 150.75 303.69 152.25 304.98 153.44C305.74 154.15 306.66 154.69 307.73 155.06C308.8 155.43 309.96 155.63 311.21 155.65C312.92 155.67 314.45 155.41 315.83 154.85C317.2 154.3 318.28 153.52 319.05 152.51C319.82 151.5 320.25 150.33 320.34 149C320.5 146.43 319.31 144.38 316.78 142.86C315.97 142.37 314.68 141.79 312.91 141.11C311.14 140.43 310.35 139.56 310.55 138.5C310.67 137.77 311.08 137.17 311.78 136.72Z" fill="white"/>
<path d="M325.8 155.32H339.19C339.69 155.32 340.13 154.96 340.21 154.46L340.6 152.25C340.71 151.61 340.22 151.03 339.58 151.03H331.99C331.34 151.03 330.86 150.45 330.97 149.81L331.58 146.36C331.67 145.86 332.1 145.5 332.6 145.5H339.36C339.87 145.5 340.3 145.14 340.38 144.64L340.74 142.58C340.85 141.94 340.36 141.36 339.72 141.36H333.67C333.02 141.36 332.53 140.78 332.65 140.14L333.14 137.34C333.23 136.84 333.66 136.48 334.16 136.48H342.49C343 136.48 343.43 136.12 343.51 135.62L343.9 133.39C344.01 132.75 343.52 132.17 342.88 132.17H329.46C328.95 132.17 328.52 132.53 328.44 133.03L324.79 154.1C324.67 154.74 325.16 155.32 325.8 155.32Z" fill="white"/>
<path d="M363.07 134.03C361.66 132.81 359.64 132.2 357.02 132.2L349.73 132.19C349.22 132.19 348.79 132.55 348.7 133.05L345.05 154.11C344.94 154.75 345.43 155.33 346.07 155.33H349.4C349.9 155.33 350.34 154.97 350.42 154.47L351.55 148C351.64 147.5 352.07 147.14 352.57 147.14H353.95C354.4 147.14 354.81 147.44 354.94 147.87L357.03 154.59C357.16 155.02 357.57 155.32 358.02 155.32H363.06V155.05L360.24 146.66C360.08 146.18 360.29 145.65 360.74 145.41C361.89 144.82 362.81 144.08 363.5 143.18C364.35 142.08 364.83 140.7 364.95 139.03C365.12 136.92 364.48 135.25 363.07 134.03ZM359.26 140.49C358.98 141.23 358.53 141.81 357.88 142.23C357.24 142.65 356.48 142.87 355.61 142.87L353.65 142.85C353.01 142.84 352.53 142.26 352.64 141.63L353.39 137.33C353.48 136.83 353.91 136.47 354.42 136.47L357.23 136.48C358.52 136.54 359.27 137.17 359.49 138.34C359.62 139.04 359.54 139.75 359.26 140.49Z" fill="white"/>
<path d="M377.12 144.98L375.84 133.11C375.78 132.58 375.34 132.18 374.81 132.18H371.09C370.45 132.18 369.96 132.76 370.07 133.39L373.6 154.46C373.68 154.96 374.12 155.33 374.62 155.33H379.03C379.43 155.33 379.79 155.1 379.97 154.74L390.16 133.67C390.49 132.98 389.99 132.18 389.22 132.18H385.33C384.91 132.18 384.54 132.43 384.37 132.81L379.11 145.27C378.69 146.26 377.23 146.04 377.12 144.98Z" fill="white"/>
<path d="M392.8 155.32H396.13C396.64 155.32 397.07 154.96 397.15 154.46L400.8 133.39C400.91 132.75 400.42 132.17 399.78 132.17H396.47C395.96 132.17 395.53 132.53 395.45 133.03L391.79 154.1C391.66 154.74 392.15 155.32 392.8 155.32Z" fill="white"/>
<path d="M415.64 136.2C416.78 136.24 417.62 136.57 418.15 137.17C418.55 137.63 418.79 138.31 418.88 139.23C418.93 139.77 419.37 140.19 419.91 140.19L423.19 140.2C423.82 140.2 424.32 139.63 424.23 139.01C423.94 136.99 423.18 135.36 421.95 134.12C420.48 132.65 418.49 131.89 415.97 131.85C414.25 131.82 412.67 132.18 411.23 132.92C409.78 133.67 408.53 134.79 407.46 136.29C406.4 137.79 405.63 139.55 405.16 141.57C404.69 143.59 404.5 145.46 404.6 147.18C404.73 149.75 405.48 151.8 406.87 153.3C408.26 154.8 410.16 155.58 412.58 155.64C414.34 155.67 415.97 155.35 417.48 154.67C418.99 153.99 420.21 153.02 421.14 151.76C421.82 150.84 422.29 149.81 422.54 148.69C422.69 148.05 422.17 147.44 421.51 147.45L418.24 147.49C417.79 147.5 417.39 147.79 417.27 148.22C417.01 149.11 416.58 149.82 415.97 150.36C415.21 151.03 414.18 151.35 412.9 151.31C410.92 151.24 409.95 149.9 410.01 147.29C410.01 146.41 410.15 144.94 410.44 142.89C411.03 138.33 412.78 136.1 415.64 136.2Z" fill="white"/>
<path d="M427.88 155.32H441.27C441.77 155.32 442.21 154.96 442.29 154.46L442.68 152.25C442.79 151.61 442.3 151.03 441.66 151.03H434.07C433.42 151.03 432.94 150.45 433.05 149.81L433.66 146.36C433.75 145.86 434.18 145.5 434.68 145.5H441.44C441.95 145.5 442.38 145.14 442.46 144.64L442.82 142.58C442.93 141.94 442.44 141.36 441.8 141.36H435.75C435.1 141.36 434.62 140.78 434.73 140.14L435.22 137.34C435.31 136.84 435.74 136.48 436.24 136.48H444.57C445.08 136.48 445.51 136.12 445.59 135.62L445.98 133.39C446.09 132.75 445.6 132.17 444.96 132.17H431.54C431.03 132.17 430.6 132.53 430.52 133.03L426.87 154.1C426.75 154.74 427.23 155.32 427.88 155.32Z" fill="white"/>
<path d="M461.5 142.87C460.69 142.38 459.4 141.8 457.63 141.12C455.86 140.44 455.07 139.57 455.27 138.51C455.4 137.76 455.81 137.16 456.51 136.71C457.21 136.26 458.01 136.05 458.93 136.07C459.86 136.09 460.53 136.37 460.94 136.9C461.21 137.26 461.39 137.69 461.46 138.21C461.53 138.7 461.98 139.04 462.48 139.04H465.81C466.43 139.04 466.92 138.5 466.85 137.89C466.65 136.25 465.99 134.9 464.85 133.84C463.46 132.55 461.62 131.88 459.33 131.84C457.62 131.82 456.05 132.09 454.61 132.65C453.17 133.21 452.04 134 451.22 135.01C450.4 136.02 449.96 137.17 449.88 138.47C449.7 141.3 451.44 143.54 455.09 145.18L457.7 146.26C459.23 146.92 459.87 147.84 459.64 149.04C459.5 149.78 459.13 150.36 458.52 150.78C457.91 151.2 457.15 151.41 456.24 151.41C455.01 151.41 454.14 151.11 453.62 150.5C453.25 150.06 453.03 149.48 452.95 148.75C452.9 148.22 452.48 147.8 451.95 147.8L448.56 147.79C447.95 147.79 447.46 148.31 447.52 148.92C447.69 150.74 448.42 152.24 449.71 153.43C450.47 154.14 451.39 154.68 452.46 155.05C453.53 155.42 454.69 155.62 455.94 155.64C457.65 155.66 459.18 155.4 460.56 154.84C461.93 154.29 463.01 153.51 463.78 152.5C464.55 151.49 464.98 150.32 465.07 148.99C465.22 146.44 464.03 144.39 461.5 142.87Z" fill="white"/>
<path d="M103.24 61.6301C110.71 55.6601 114.78 47.6301 115.43 37.5401C116.19 25.8901 112.33 16.8401 103.88 10.3901C95.4199 3.94007 82.61 0.680048 65.45 0.620048L30.0401 0.540061C25.3701 0.530061 21.3601 3.89005 20.5701 8.50005L0.210011 126.1C-0.799989 131.96 3.70996 137.33 9.65996 137.33H53.1399C69.7399 137.33 82.8202 133.76 92.3702 126.62C101.92 119.48 107.13 109.3 108.01 96.0801C108.45 89.1901 107.18 83.29 104.21 78.37C103.57 77.32 102.88 76.34 102.14 75.43C98.7199 71.23 99.01 65.0101 103.24 61.6301ZM86.4 68.9201L35.97 93.37C34.01 94.32 31.8 92.6701 32.15 90.5301L39.99 42.4801C40.28 40.6401 42.31 39.66 43.93 40.5601L86.5301 64.1601C88.4401 65.2201 88.36 67.9701 86.4 68.9201Z" fill="white"/>
<path d="M246.76 60.5C250.71 60.5 253.58 56.8001 252.66 52.9501C251.54 48.2401 249.23 44.27 245.75 41.03C240.53 36.19 233.64 33.69 225.06 33.53C218.67 33.45 212.78 34.46 207.38 36.57C201.98 38.67 197.76 41.62 194.7 45.41C191.64 49.2 189.98 53.52 189.7 58.36C189.03 68.96 195.53 77.33 209.22 83.48L218.98 87.53C224.69 89.99 227.11 93.4601 226.24 97.9501C225.72 100.73 224.32 102.9 222.04 104.47C219.76 106.04 216.91 106.82 213.5 106.82C208.9 106.82 205.62 105.68 203.68 103.4C202.55 102.07 201.78 100.37 201.39 98.3C200.85 95.44 198.45 93.3 195.53 93.29L187.26 93.2701C183.4 93.2601 180.53 96.8001 181.29 100.59C182.38 106.02 184.96 110.62 189.04 114.38C191.9 117.04 195.33 119.06 199.34 120.45C203.35 121.84 207.69 122.57 212.38 122.65C218.77 122.73 224.53 121.74 229.67 119.67C234.81 117.61 238.83 114.69 241.72 110.92C244.62 107.15 246.22 102.77 246.54 97.7701C247.14 88.1301 242.69 80.47 233.21 74.79C230.19 72.97 225.36 70.78 218.72 68.24C212.07 65.7 209.13 62.4501 209.88 58.4801C210.36 55.6601 211.9 53.42 214.52 51.75C217.14 50.08 220.15 49.29 223.57 49.37C227.06 49.45 229.57 50.49 231.1 52.49C231.86 53.48 232.41 54.64 232.77 55.96C233.48 58.63 235.88 60.49 238.64 60.49L246.76 60.5Z" fill="white"/>
<path d="M173.36 79.57L173.94 76.25C174.58 72.53 171.72 69.14 167.95 69.14H150.5C146.72 69.14 143.86 65.73 144.52 62.01L145.6 55.89C146.11 52.98 148.63 50.87 151.58 50.87H179.1C182.06 50.87 184.58 48.74 185.09 45.83L185.78 41.85C186.42 38.13 183.56 34.74 179.79 34.74H133.97C131.01 34.74 128.49 36.87 127.98 39.78L115.08 114.29C114.44 118.01 117.3 121.4 121.07 121.4H166.78C169.73 121.4 172.26 119.28 172.77 116.37L173.45 112.45C174.1 108.73 171.24 105.33 167.46 105.33H144.24C140.46 105.33 137.6 101.92 138.25 98.2L139.75 89.64C140.26 86.73 142.78 84.61 145.74 84.61H167.37C170.33 84.61 172.85 82.49 173.36 79.57Z" fill="white"/>
<path d="M264.45 50.8601H277.13C279.69 50.8601 281.63 53.1701 281.19 55.6901L271 114.28C270.35 118 273.21 121.4 276.99 121.4H285.07C288.03 121.4 290.55 119.27 291.06 116.36L301.8 54.2801C302.14 52.3001 303.86 50.8601 305.86 50.8601H322.52C325.48 50.8601 328 48.7301 328.51 45.8201L329.2 41.8401C329.84 38.1201 326.98 34.7301 323.21 34.7301H265.17C262.22 34.7301 259.7 36.8401 259.19 39.7501L258.49 43.7301C257.81 47.4501 260.67 50.8601 264.45 50.8601Z" fill="white"/>
<path d="M363.49 50.8601H375.23C378.28 50.8601 380.59 53.6101 380.06 56.6101L370.03 114.28C369.38 118 372.24 121.4 376.02 121.4H384.1C387.06 121.4 389.58 119.27 390.09 116.36L400.72 54.9301C401.13 52.5801 403.17 50.8601 405.56 50.8601H421.55C424.51 50.8601 427.03 48.7301 427.54 45.8201L428.23 41.8401C428.87 38.1201 426.01 34.7301 422.24 34.7301H364.2C361.25 34.7301 358.73 36.8401 358.22 39.7501L357.52 43.7301C356.84 47.4501 359.71 50.8601 363.49 50.8601Z" fill="white"/>
<path d="M486.1 38.4401L467.49 82.5001C465.79 86.5401 459.83 85.6601 459.36 81.3001L454.92 40.1501C454.59 37.0601 451.98 34.7301 448.88 34.7301H439.49C435.73 34.7301 432.88 38.1101 433.5 41.8101L445.99 116.32C446.48 119.25 449.01 121.39 451.98 121.39H465.29C467.62 121.39 469.75 120.06 470.76 117.96L506.79 43.4501C508.74 39.4101 505.8 34.7301 501.32 34.7301H491.7C489.26 34.7301 487.05 36.1901 486.1 38.4401Z" fill="white"/>
</svg>
